# xmcd
# 
# Track frame offsets:
#     150
#     15657
#     28900
#     45581
# 
# Disc length: 876
# 
# Revision: 0
# Processed by: cddbd v1.5.2PL0 Copyright (c) Steve Scherf et al.
# Submitted via: fre:ac v1.0.17
# 
DISCID=29036a04
DTITLE=Various Artist - Happy Pledis 2012 'Love Letter' [Single]
DYEAR=2011
DGENRE=K-Pop
TTITLE0=Pledis Artists - Love Letter Feat. 손담비, 애프터 스쿨, 아라, 혜림, 정현, 민현, 동호
TTITLE1=손담비, 가희, 정아 - 겨울 이야기
TTITLE2=오렌지 캬라멜 - 어떤가요
TTITLE3=애프터 스쿨 - Love Love Love (Remix)
EXTD=
EXTT0=
EXTT1=
EXTT2=
EXTT3=
PLAYORDER=
